<?xml version="1.0" encoding="UTF-8" standalone="no"?>
<!DOCTYPE svg PUBLIC "-//W3C//DTD SVG 1.1//EN"
 "http://www.w3.org/Graphics/SVG/1.1/DTD/svg11.dtd">
<!-- Generated by graphviz version 2.38.0 (20140413.2041)
 -->
<!-- Title: snakemake_dag Pages: 1 -->
<svg width="678pt" height="625pt"
 viewBox="0.00 0.00 678.19 625.00" xmlns="http://www.w3.org/2000/svg" xmlns:xlink="http://www.w3.org/1999/xlink">
<g id="graph0" class="graph" transform="scale(1 1) rotate(0) translate(4 621)">
<title>snakemake_dag</title>
<polygon fill="white" stroke="none" points="-4,4 -4,-621 674.191,-621 674.191,4 -4,4"/>
<!-- 0 -->
<g id="node1" class="node"><title>0</title>
<path fill="none" stroke="#56b9d8" stroke-width="2" stroke-dasharray="5,2" d="M338,-36C338,-36 284,-36 284,-36 278,-36 272,-30 272,-24 272,-24 272,-12 272,-12 272,-6 278,-0 284,-0 284,-0 338,-0 338,-0 344,-0 350,-6 350,-12 350,-12 350,-24 350,-24 350,-30 344,-36 338,-36"/>
<text text-anchor="middle" x="311" y="-15.5" font-family="sans" font-size="10.00">nanopore_sv</text>
</g>
<!-- 1 -->
<g id="node2" class="node"><title>1</title>
<path fill="none" stroke="#d85656" stroke-width="2" stroke-dasharray="5,2" d="M343.5,-108C343.5,-108 278.5,-108 278.5,-108 272.5,-108 266.5,-102 266.5,-96 266.5,-96 266.5,-84 266.5,-84 266.5,-78 272.5,-72 278.5,-72 278.5,-72 343.5,-72 343.5,-72 349.5,-72 355.5,-78 355.5,-84 355.5,-84 355.5,-96 355.5,-96 355.5,-102 349.5,-108 343.5,-108"/>
<text text-anchor="middle" x="311" y="-87.5" font-family="sans" font-size="10.00">merge_sv_final</text>
</g>
<!-- 1&#45;&gt;0 -->
<g id="edge1" class="edge"><title>1&#45;&gt;0</title>
<path fill="none" stroke="grey" stroke-width="2" d="M311,-71.6966C311,-63.9827 311,-54.7125 311,-46.1124"/>
<polygon fill="grey" stroke="grey" stroke-width="2" points="314.5,-46.1043 311,-36.1043 307.5,-46.1044 314.5,-46.1043"/>
</g>
<!-- 2 -->
<g id="node3" class="node"><title>2</title>
<path fill="none" stroke="#56d863" stroke-width="2" stroke-dasharray="5,2" d="M290,-180C290,-180 12,-180 12,-180 6,-180 0,-174 0,-168 0,-168 0,-156 0,-156 0,-150 6,-144 12,-144 12,-144 290,-144 290,-144 296,-144 302,-150 302,-156 302,-156 302,-168 302,-168 302,-174 296,-180 290,-180"/>
<text text-anchor="middle" x="151" y="-165" font-family="sans" font-size="10.00">sort_vcf</text>
<text text-anchor="middle" x="151" y="-154" font-family="sans" font-size="10.00">sample: CHOZNStableNoglnDay0rep2.minimap2.SURVIVOR</text>
</g>
<!-- 2&#45;&gt;1 -->
<g id="edge2" class="edge"><title>2&#45;&gt;1</title>
<path fill="none" stroke="grey" stroke-width="2" d="M190.14,-143.876C212.013,-134.307 239.457,-122.3 262.662,-112.148"/>
<polygon fill="grey" stroke="grey" stroke-width="2" points="264.228,-115.283 271.987,-108.068 261.422,-108.87 264.228,-115.283"/>
</g>
<!-- 3 -->
<g id="node4" class="node"><title>3</title>
<path fill="none" stroke="#56d863" stroke-width="2" stroke-dasharray="5,2" d="M610,-180C610,-180 332,-180 332,-180 326,-180 320,-174 320,-168 320,-168 320,-156 320,-156 320,-150 326,-144 332,-144 332,-144 610,-144 610,-144 616,-144 622,-150 622,-156 622,-156 622,-168 622,-168 622,-174 616,-180 610,-180"/>
<text text-anchor="middle" x="471" y="-165" font-family="sans" font-size="10.00">sort_vcf</text>
<text text-anchor="middle" x="471" y="-154" font-family="sans" font-size="10.00">sample: CHOZNStableNoglnDay0rep3.minimap2.SURVIVOR</text>
</g>
<!-- 3&#45;&gt;1 -->
<g id="edge3" class="edge"><title>3&#45;&gt;1</title>
<path fill="none" stroke="grey" stroke-width="2" d="M431.86,-143.876C409.987,-134.307 382.543,-122.3 359.338,-112.148"/>
<polygon fill="grey" stroke="grey" stroke-width="2" points="360.578,-108.87 350.013,-108.068 357.772,-115.283 360.578,-108.87"/>
</g>
<!-- 4 -->
<g id="node5" class="node"><title>4</title>
<path fill="none" stroke="#56d8a9" stroke-width="2" stroke-dasharray="5,2" d="M264.5,-252C264.5,-252 37.5,-252 37.5,-252 31.5,-252 25.5,-246 25.5,-240 25.5,-240 25.5,-228 25.5,-228 25.5,-222 31.5,-216 37.5,-216 37.5,-216 264.5,-216 264.5,-216 270.5,-216 276.5,-222 276.5,-228 276.5,-228 276.5,-240 276.5,-240 276.5,-246 270.5,-252 264.5,-252"/>
<text text-anchor="middle" x="151" y="-237" font-family="sans" font-size="10.00">sniffles_sv_forcecall</text>
<text text-anchor="middle" x="151" y="-226" font-family="sans" font-size="10.00">sample: CHOZNStableNoglnDay0rep2.minimap2</text>
</g>
<!-- 4&#45;&gt;2 -->
<g id="edge4" class="edge"><title>4&#45;&gt;2</title>
<path fill="none" stroke="grey" stroke-width="2" d="M151,-215.697C151,-207.983 151,-198.712 151,-190.112"/>
<polygon fill="grey" stroke="grey" stroke-width="2" points="154.5,-190.104 151,-180.104 147.5,-190.104 154.5,-190.104"/>
</g>
<!-- 5 -->
<g id="node6" class="node"><title>5</title>
<path fill="none" stroke="#56d8a9" stroke-width="2" stroke-dasharray="5,2" d="M584.5,-252C584.5,-252 357.5,-252 357.5,-252 351.5,-252 345.5,-246 345.5,-240 345.5,-240 345.5,-228 345.5,-228 345.5,-222 351.5,-216 357.5,-216 357.5,-216 584.5,-216 584.5,-216 590.5,-216 596.5,-222 596.5,-228 596.5,-228 596.5,-240 596.5,-240 596.5,-246 590.5,-252 584.5,-252"/>
<text text-anchor="middle" x="471" y="-237" font-family="sans" font-size="10.00">sniffles_sv_forcecall</text>
<text text-anchor="middle" x="471" y="-226" font-family="sans" font-size="10.00">sample: CHOZNStableNoglnDay0rep3.minimap2</text>
</g>
<!-- 5&#45;&gt;3 -->
<g id="edge5" class="edge"><title>5&#45;&gt;3</title>
<path fill="none" stroke="grey" stroke-width="2" d="M471,-215.697C471,-207.983 471,-198.712 471,-190.112"/>
<polygon fill="grey" stroke="grey" stroke-width="2" points="474.5,-190.104 471,-180.104 467.5,-190.104 474.5,-190.104"/>
</g>
<!-- 6 -->
<g id="node7" class="node"><title>6</title>
<path fill="none" stroke="#d6d856" stroke-width="2" stroke-dasharray="5,2" d="M288,-545C288,-545 112,-545 112,-545 106,-545 100,-539 100,-533 100,-533 100,-516 100,-516 100,-510 106,-504 112,-504 112,-504 288,-504 288,-504 294,-504 300,-510 300,-516 300,-516 300,-533 300,-533 300,-539 294,-545 288,-545"/>
<text text-anchor="middle" x="200" y="-533" font-family="sans" font-size="10.00">minimap2_align</text>
<text text-anchor="middle" x="200" y="-522" font-family="sans" font-size="10.00">dir: data/nanopore</text>
<text text-anchor="middle" x="200" y="-511" font-family="sans" font-size="10.00">sample: CHOZNStableNoglnDay0rep2</text>
</g>
<!-- 6&#45;&gt;4 -->
<g id="edge6" class="edge"><title>6&#45;&gt;4</title>
<path fill="none" stroke="grey" stroke-width="2" d="M118.271,-503.958C98.4718,-495.751 79.0042,-484.199 65,-468 43.4278,-443.047 51.0302,-428.738 47,-396 45.0451,-380.12 41.5591,-375.046 47,-360 61.8768,-318.859 96.8526,-281.721 122.142,-258.816"/>
<polygon fill="grey" stroke="grey" stroke-width="2" points="124.477,-261.424 129.647,-252.176 119.838,-256.182 124.477,-261.424"/>
</g>
<!-- 12 -->
<g id="node13" class="node"><title>12</title>
<path fill="none" stroke="#d88d56" stroke-width="2" stroke-dasharray="5,2" d="M313.5,-468C313.5,-468 86.5,-468 86.5,-468 80.5,-468 74.5,-462 74.5,-456 74.5,-456 74.5,-444 74.5,-444 74.5,-438 80.5,-432 86.5,-432 86.5,-432 313.5,-432 313.5,-432 319.5,-432 325.5,-438 325.5,-444 325.5,-444 325.5,-456 325.5,-456 325.5,-462 319.5,-468 313.5,-468"/>
<text text-anchor="middle" x="200" y="-453" font-family="sans" font-size="10.00">sniffles_sv</text>
<text text-anchor="middle" x="200" y="-442" font-family="sans" font-size="10.00">sample: CHOZNStableNoglnDay0rep2.minimap2</text>
</g>
<!-- 6&#45;&gt;12 -->
<g id="edge16" class="edge"><title>6&#45;&gt;12</title>
<path fill="none" stroke="grey" stroke-width="2" d="M200,-503.689C200,-495.907 200,-486.842 200,-478.447"/>
<polygon fill="grey" stroke="grey" stroke-width="2" points="203.5,-478.319 200,-468.319 196.5,-478.32 203.5,-478.319"/>
</g>
<!-- 7 -->
<g id="node8" class="node"><title>7</title>
<path fill="none" stroke="#567bd8" stroke-width="2" stroke-dasharray="5,2" d="M334.5,-324C334.5,-324 213.5,-324 213.5,-324 207.5,-324 201.5,-318 201.5,-312 201.5,-312 201.5,-300 201.5,-300 201.5,-294 207.5,-288 213.5,-288 213.5,-288 334.5,-288 334.5,-288 340.5,-288 346.5,-294 346.5,-300 346.5,-300 346.5,-312 346.5,-312 346.5,-318 340.5,-324 334.5,-324"/>
<text text-anchor="middle" x="274" y="-303.5" font-family="sans" font-size="10.00">merge_sv_before_forcecall</text>
</g>
<!-- 7&#45;&gt;4 -->
<g id="edge7" class="edge"><title>7&#45;&gt;4</title>
<path fill="none" stroke="grey" stroke-width="2" d="M243.911,-287.876C227.68,-278.639 207.458,-267.131 190.029,-257.212"/>
<polygon fill="grey" stroke="grey" stroke-width="2" points="191.627,-254.094 181.205,-252.19 188.165,-260.178 191.627,-254.094"/>
</g>
<!-- 7&#45;&gt;5 -->
<g id="edge9" class="edge"><title>7&#45;&gt;5</title>
<path fill="none" stroke="grey" stroke-width="2" d="M321.94,-287.966C349.465,-278.185 384.217,-265.836 413.241,-255.524"/>
<polygon fill="grey" stroke="grey" stroke-width="2" points="414.594,-258.757 422.845,-252.111 412.251,-252.161 414.594,-258.757"/>
</g>
<!-- 8 -->
<g id="node9" class="node"><title>8</title>
<path fill="none" stroke="#d6d856" stroke-width="2" stroke-dasharray="5,2" d="M593,-545C593,-545 417,-545 417,-545 411,-545 405,-539 405,-533 405,-533 405,-516 405,-516 405,-510 411,-504 417,-504 417,-504 593,-504 593,-504 599,-504 605,-510 605,-516 605,-516 605,-533 605,-533 605,-539 599,-545 593,-545"/>
<text text-anchor="middle" x="505" y="-533" font-family="sans" font-size="10.00">minimap2_align</text>
<text text-anchor="middle" x="505" y="-522" font-family="sans" font-size="10.00">dir: data/nanopore</text>
<text text-anchor="middle" x="505" y="-511" font-family="sans" font-size="10.00">sample: CHOZNStableNoglnDay0rep3</text>
</g>
<!-- 8&#45;&gt;5 -->
<g id="edge8" class="edge"><title>8&#45;&gt;5</title>
<path fill="none" stroke="grey" stroke-width="2" d="M585.783,-503.99C605.555,-495.774 625.023,-484.21 639,-468 670.777,-431.146 679.882,-402.947 657,-360 630.071,-309.457 572.614,-275.71 528.64,-256.155"/>
<polygon fill="grey" stroke="grey" stroke-width="2" points="529.764,-252.828 519.196,-252.079 526.99,-259.255 529.764,-252.828"/>
</g>
<!-- 13 -->
<g id="node14" class="node"><title>13</title>
<path fill="none" stroke="#d88d56" stroke-width="2" stroke-dasharray="5,2" d="M618.5,-468C618.5,-468 391.5,-468 391.5,-468 385.5,-468 379.5,-462 379.5,-456 379.5,-456 379.5,-444 379.5,-444 379.5,-438 385.5,-432 391.5,-432 391.5,-432 618.5,-432 618.5,-432 624.5,-432 630.5,-438 630.5,-444 630.5,-444 630.5,-456 630.5,-456 630.5,-462 624.5,-468 618.5,-468"/>
<text text-anchor="middle" x="505" y="-453" font-family="sans" font-size="10.00">sniffles_sv</text>
<text text-anchor="middle" x="505" y="-442" font-family="sans" font-size="10.00">sample: CHOZNStableNoglnDay0rep3.minimap2</text>
</g>
<!-- 8&#45;&gt;13 -->
<g id="edge17" class="edge"><title>8&#45;&gt;13</title>
<path fill="none" stroke="grey" stroke-width="2" d="M505,-503.689C505,-495.907 505,-486.842 505,-478.447"/>
<polygon fill="grey" stroke="grey" stroke-width="2" points="508.5,-478.319 505,-468.319 501.5,-478.32 508.5,-478.319"/>
</g>
<!-- 9 -->
<g id="node10" class="node"><title>9</title>
<path fill="none" stroke="#56d88a" stroke-width="2" stroke-dasharray="5,2" d="M401,-617C401,-617 303,-617 303,-617 297,-617 291,-611 291,-605 291,-605 291,-593 291,-593 291,-587 297,-581 303,-581 303,-581 401,-581 401,-581 407,-581 413,-587 413,-593 413,-593 413,-605 413,-605 413,-611 407,-617 401,-617"/>
<text text-anchor="middle" x="352" y="-596.5" font-family="sans" font-size="10.00">minimap2_makeindex</text>
</g>
<!-- 9&#45;&gt;6 -->
<g id="edge10" class="edge"><title>9&#45;&gt;6</title>
<path fill="none" stroke="grey" stroke-width="2" d="M315.978,-580.819C296.401,-571.481 271.876,-559.783 250.427,-549.553"/>
<polygon fill="grey" stroke="grey" stroke-width="2" points="251.666,-546.266 241.133,-545.12 248.652,-552.584 251.666,-546.266"/>
</g>
<!-- 9&#45;&gt;8 -->
<g id="edge13" class="edge"><title>9&#45;&gt;8</title>
<path fill="none" stroke="grey" stroke-width="2" d="M388.259,-580.819C408.053,-571.439 432.872,-559.678 454.531,-549.415"/>
<polygon fill="grey" stroke="grey" stroke-width="2" points="456.058,-552.565 463.596,-545.12 453.06,-546.239 456.058,-552.565"/>
</g>
<!-- 10 -->
<g id="node11" class="node"><title>10</title>
<path fill="none" stroke="#56d863" stroke-width="2" stroke-dasharray="5,2" d="M331.5,-396C331.5,-396 68.5,-396 68.5,-396 62.5,-396 56.5,-390 56.5,-384 56.5,-384 56.5,-372 56.5,-372 56.5,-366 62.5,-360 68.5,-360 68.5,-360 331.5,-360 331.5,-360 337.5,-360 343.5,-366 343.5,-372 343.5,-372 343.5,-384 343.5,-384 343.5,-390 337.5,-396 331.5,-396"/>
<text text-anchor="middle" x="200" y="-381" font-family="sans" font-size="10.00">sort_vcf</text>
<text text-anchor="middle" x="200" y="-370" font-family="sans" font-size="10.00">sample: CHOZNStableNoglnDay0rep2.minimap2.sniffles</text>
</g>
<!-- 10&#45;&gt;7 -->
<g id="edge11" class="edge"><title>10&#45;&gt;7</title>
<path fill="none" stroke="grey" stroke-width="2" d="M218.292,-359.697C227.433,-351.05 238.64,-340.449 248.6,-331.027"/>
<polygon fill="grey" stroke="grey" stroke-width="2" points="251.059,-333.519 255.918,-324.104 246.248,-328.434 251.059,-333.519"/>
</g>
<!-- 11 -->
<g id="node12" class="node"><title>11</title>
<path fill="none" stroke="#56d863" stroke-width="2" stroke-dasharray="5,2" d="M636.5,-396C636.5,-396 373.5,-396 373.5,-396 367.5,-396 361.5,-390 361.5,-384 361.5,-384 361.5,-372 361.5,-372 361.5,-366 367.5,-360 373.5,-360 373.5,-360 636.5,-360 636.5,-360 642.5,-360 648.5,-366 648.5,-372 648.5,-372 648.5,-384 648.5,-384 648.5,-390 642.5,-396 636.5,-396"/>
<text text-anchor="middle" x="505" y="-381" font-family="sans" font-size="10.00">sort_vcf</text>
<text text-anchor="middle" x="505" y="-370" font-family="sans" font-size="10.00">sample: CHOZNStableNoglnDay0rep3.minimap2.sniffles</text>
</g>
<!-- 11&#45;&gt;7 -->
<g id="edge12" class="edge"><title>11&#45;&gt;7</title>
<path fill="none" stroke="grey" stroke-width="2" d="M448.786,-359.966C416.09,-350.057 374.696,-337.514 340.399,-327.121"/>
<polygon fill="grey" stroke="grey" stroke-width="2" points="341.051,-323.661 330.466,-324.111 339.021,-330.361 341.051,-323.661"/>
</g>
<!-- 12&#45;&gt;10 -->
<g id="edge14" class="edge"><title>12&#45;&gt;10</title>
<path fill="none" stroke="grey" stroke-width="2" d="M200,-431.697C200,-423.983 200,-414.712 200,-406.112"/>
<polygon fill="grey" stroke="grey" stroke-width="2" points="203.5,-406.104 200,-396.104 196.5,-406.104 203.5,-406.104"/>
</g>
<!-- 13&#45;&gt;11 -->
<g id="edge15" class="edge"><title>13&#45;&gt;11</title>
<path fill="none" stroke="grey" stroke-width="2" d="M505,-431.697C505,-423.983 505,-414.712 505,-406.112"/>
<polygon fill="grey" stroke="grey" stroke-width="2" points="508.5,-406.104 505,-396.104 501.5,-406.104 508.5,-406.104"/>
</g>
</g>
</svg>
