<?xml version="1.0" encoding="UTF-8" standalone="no"?>
<!DOCTYPE svg PUBLIC "-//W3C//DTD SVG 1.1//EN"
 "http://www.w3.org/Graphics/SVG/1.1/DTD/svg11.dtd">
<!-- Generated by graphviz version 2.38.0 (20140413.2041)
 -->
<!-- Title: snakemake_dag Pages: 1 -->
<svg width="1175pt" height="625pt"
 viewBox="0.00 0.00 1175.27 625.00" xmlns="http://www.w3.org/2000/svg" xmlns:xlink="http://www.w3.org/1999/xlink">
<g id="graph0" class="graph" transform="scale(1 1) rotate(0) translate(4 621)">
<title>snakemake_dag</title>
<polygon fill="white" stroke="none" points="-4,4 -4,-621 1171.27,-621 1171.27,4 -4,4"/>
<!-- 0 -->
<g id="node1" class="node"><title>0</title>
<path fill="none" stroke="#56d89a" stroke-width="2" stroke-dasharray="5,2" d="M759.766,-36C759.766,-36 688.766,-36 688.766,-36 682.766,-36 676.766,-30 676.766,-24 676.766,-24 676.766,-12 676.766,-12 676.766,-6 682.766,-0 688.766,-0 688.766,-0 759.766,-0 759.766,-0 765.766,-0 771.766,-6 771.766,-12 771.766,-12 771.766,-24 771.766,-24 771.766,-30 765.766,-36 759.766,-36"/>
<text text-anchor="middle" x="724.266" y="-15.5" font-family="sans" font-size="10.00">parse_nanopore</text>
</g>
<!-- 1 -->
<g id="node2" class="node"><title>1</title>
<path fill="none" stroke="#d86656" stroke-width="2" stroke-dasharray="5,2" d="M577.766,-108C577.766,-108 512.766,-108 512.766,-108 506.766,-108 500.766,-102 500.766,-96 500.766,-96 500.766,-84 500.766,-84 500.766,-78 506.766,-72 512.766,-72 512.766,-72 577.766,-72 577.766,-72 583.766,-72 589.766,-78 589.766,-84 589.766,-84 589.766,-96 589.766,-96 589.766,-102 583.766,-108 577.766,-108"/>
<text text-anchor="middle" x="545.266" y="-87.5" font-family="sans" font-size="10.00">merge_sv_final</text>
</g>
<!-- 1&#45;&gt;0 -->
<g id="edge1" class="edge"><title>1&#45;&gt;0</title>
<path fill="none" stroke="grey" stroke-width="2" d="M589.055,-71.8761C613.851,-62.1791 645.047,-49.9795 671.224,-39.7427"/>
<polygon fill="grey" stroke="grey" stroke-width="2" points="672.582,-42.97 680.62,-36.0683 670.032,-36.4508 672.582,-42.97"/>
</g>
<!-- 2 -->
<g id="node3" class="node"><title>2</title>
<path fill="none" stroke="#70d856" stroke-width="2" stroke-dasharray="5,2" d="M758.766,-108C758.766,-108 689.766,-108 689.766,-108 683.766,-108 677.766,-102 677.766,-96 677.766,-96 677.766,-84 677.766,-84 677.766,-78 683.766,-72 689.766,-72 689.766,-72 758.766,-72 758.766,-72 764.766,-72 770.766,-78 770.766,-84 770.766,-84 770.766,-96 770.766,-96 770.766,-102 764.766,-108 758.766,-108"/>
<text text-anchor="middle" x="724.266" y="-93" font-family="sans" font-size="10.00">mbed_to_mfreq</text>
<text text-anchor="middle" x="724.266" y="-82" font-family="sans" font-size="10.00">mod: cpg</text>
</g>
<!-- 2&#45;&gt;0 -->
<g id="edge2" class="edge"><title>2&#45;&gt;0</title>
<path fill="none" stroke="grey" stroke-width="2" d="M724.266,-71.6966C724.266,-63.9827 724.266,-54.7125 724.266,-46.1124"/>
<polygon fill="grey" stroke="grey" stroke-width="2" points="727.766,-46.1043 724.266,-36.1043 720.766,-46.1044 727.766,-46.1043"/>
</g>
<!-- 3 -->
<g id="node4" class="node"><title>3</title>
<path fill="none" stroke="#70d856" stroke-width="2" stroke-dasharray="5,2" d="M849.766,-324C849.766,-324 780.766,-324 780.766,-324 774.766,-324 768.766,-318 768.766,-312 768.766,-312 768.766,-300 768.766,-300 768.766,-294 774.766,-288 780.766,-288 780.766,-288 849.766,-288 849.766,-288 855.766,-288 861.766,-294 861.766,-300 861.766,-300 861.766,-312 861.766,-312 861.766,-318 855.766,-324 849.766,-324"/>
<text text-anchor="middle" x="815.266" y="-309" font-family="sans" font-size="10.00">mbed_to_mfreq</text>
<text text-anchor="middle" x="815.266" y="-298" font-family="sans" font-size="10.00">mod: cpg</text>
</g>
<!-- 3&#45;&gt;0 -->
<g id="edge3" class="edge"><title>3&#45;&gt;0</title>
<path fill="none" stroke="grey" stroke-width="2" d="M816.231,-287.77C817.743,-247.524 817.25,-145.21 779.266,-72 773.598,-61.0755 764.811,-51.1059 755.911,-42.8347"/>
<polygon fill="grey" stroke="grey" stroke-width="2" points="757.964,-39.9802 748.136,-36.0221 753.351,-45.2449 757.964,-39.9802"/>
</g>
<!-- 4 -->
<g id="node5" class="node"><title>4</title>
<path fill="none" stroke="#56b9d8" stroke-width="2" stroke-dasharray="5,2" d="M364.266,-180C364.266,-180 86.2662,-180 86.2662,-180 80.2662,-180 74.2662,-174 74.2662,-168 74.2662,-168 74.2662,-156 74.2662,-156 74.2662,-150 80.2662,-144 86.2662,-144 86.2662,-144 364.266,-144 364.266,-144 370.266,-144 376.266,-150 376.266,-156 376.266,-156 376.266,-168 376.266,-168 376.266,-174 370.266,-180 364.266,-180"/>
<text text-anchor="middle" x="225.266" y="-165" font-family="sans" font-size="10.00">sort_vcf</text>
<text text-anchor="middle" x="225.266" y="-154" font-family="sans" font-size="10.00">sample: CHOZNStableNoglnDay0rep2.minimap2.SURVIVOR</text>
</g>
<!-- 4&#45;&gt;1 -->
<g id="edge4" class="edge"><title>4&#45;&gt;1</title>
<path fill="none" stroke="grey" stroke-width="2" d="M303.138,-143.966C361.24,-131.256 439.166,-114.209 490.734,-102.929"/>
<polygon fill="grey" stroke="grey" stroke-width="2" points="491.662,-106.309 500.683,-100.753 490.166,-99.4705 491.662,-106.309"/>
</g>
<!-- 5 -->
<g id="node6" class="node"><title>5</title>
<path fill="none" stroke="#56b9d8" stroke-width="2" stroke-dasharray="5,2" d="M684.266,-180C684.266,-180 406.266,-180 406.266,-180 400.266,-180 394.266,-174 394.266,-168 394.266,-168 394.266,-156 394.266,-156 394.266,-150 400.266,-144 406.266,-144 406.266,-144 684.266,-144 684.266,-144 690.266,-144 696.266,-150 696.266,-156 696.266,-156 696.266,-168 696.266,-168 696.266,-174 690.266,-180 684.266,-180"/>
<text text-anchor="middle" x="545.266" y="-165" font-family="sans" font-size="10.00">sort_vcf</text>
<text text-anchor="middle" x="545.266" y="-154" font-family="sans" font-size="10.00">sample: CHOZNStableNoglnDay0rep3.minimap2.SURVIVOR</text>
</g>
<!-- 5&#45;&gt;1 -->
<g id="edge5" class="edge"><title>5&#45;&gt;1</title>
<path fill="none" stroke="grey" stroke-width="2" d="M545.266,-143.697C545.266,-135.983 545.266,-126.712 545.266,-118.112"/>
<polygon fill="grey" stroke="grey" stroke-width="2" points="548.766,-118.104 545.266,-108.104 541.766,-118.104 548.766,-118.104"/>
</g>
<!-- 6 -->
<g id="node7" class="node"><title>6</title>
<path fill="none" stroke="#56d88a" stroke-width="2" stroke-dasharray="5,2" d="M748.766,-396C748.766,-396 683.766,-396 683.766,-396 677.766,-396 671.766,-390 671.766,-384 671.766,-384 671.766,-372 671.766,-372 671.766,-366 677.766,-360 683.766,-360 683.766,-360 748.766,-360 748.766,-360 754.766,-360 760.766,-366 760.766,-372 760.766,-372 760.766,-384 760.766,-384 760.766,-390 754.766,-396 748.766,-396"/>
<text text-anchor="middle" x="716.266" y="-375.5" font-family="sans" font-size="10.00">mtsv_to_mbed</text>
</g>
<!-- 6&#45;&gt;2 -->
<g id="edge6" class="edge"><title>6&#45;&gt;2</title>
<path fill="none" stroke="grey" stroke-width="2" d="M716.743,-359.966C718.076,-312.291 721.855,-177.185 723.493,-118.63"/>
<polygon fill="grey" stroke="grey" stroke-width="2" points="727.001,-118.4 723.782,-108.306 720.004,-118.205 727.001,-118.4"/>
</g>
<!-- 7 -->
<g id="node8" class="node"><title>7</title>
<path fill="none" stroke="#56d88a" stroke-width="2" stroke-dasharray="5,2" d="M855.766,-396C855.766,-396 790.766,-396 790.766,-396 784.766,-396 778.766,-390 778.766,-384 778.766,-384 778.766,-372 778.766,-372 778.766,-366 784.766,-360 790.766,-360 790.766,-360 855.766,-360 855.766,-360 861.766,-360 867.766,-366 867.766,-372 867.766,-372 867.766,-384 867.766,-384 867.766,-390 861.766,-396 855.766,-396"/>
<text text-anchor="middle" x="823.266" y="-375.5" font-family="sans" font-size="10.00">mtsv_to_mbed</text>
</g>
<!-- 7&#45;&gt;3 -->
<g id="edge7" class="edge"><title>7&#45;&gt;3</title>
<path fill="none" stroke="grey" stroke-width="2" d="M821.289,-359.697C820.407,-351.983 819.348,-342.712 818.365,-334.112"/>
<polygon fill="grey" stroke="grey" stroke-width="2" points="821.834,-333.642 817.221,-324.104 814.879,-334.437 821.834,-333.642"/>
</g>
<!-- 8 -->
<g id="node9" class="node"><title>8</title>
<path fill="none" stroke="#d8b456" stroke-width="2" stroke-dasharray="5,2" d="M338.766,-252C338.766,-252 111.766,-252 111.766,-252 105.766,-252 99.7662,-246 99.7662,-240 99.7662,-240 99.7662,-228 99.7662,-228 99.7662,-222 105.766,-216 111.766,-216 111.766,-216 338.766,-216 338.766,-216 344.766,-216 350.766,-222 350.766,-228 350.766,-228 350.766,-240 350.766,-240 350.766,-246 344.766,-252 338.766,-252"/>
<text text-anchor="middle" x="225.266" y="-237" font-family="sans" font-size="10.00">sniffles_sv_forcecall</text>
<text text-anchor="middle" x="225.266" y="-226" font-family="sans" font-size="10.00">sample: CHOZNStableNoglnDay0rep2.minimap2</text>
</g>
<!-- 8&#45;&gt;4 -->
<g id="edge8" class="edge"><title>8&#45;&gt;4</title>
<path fill="none" stroke="grey" stroke-width="2" d="M225.266,-215.697C225.266,-207.983 225.266,-198.712 225.266,-190.112"/>
<polygon fill="grey" stroke="grey" stroke-width="2" points="228.766,-190.104 225.266,-180.104 221.766,-190.104 228.766,-190.104"/>
</g>
<!-- 9 -->
<g id="node10" class="node"><title>9</title>
<path fill="none" stroke="#d8b456" stroke-width="2" stroke-dasharray="5,2" d="M658.766,-252C658.766,-252 431.766,-252 431.766,-252 425.766,-252 419.766,-246 419.766,-240 419.766,-240 419.766,-228 419.766,-228 419.766,-222 425.766,-216 431.766,-216 431.766,-216 658.766,-216 658.766,-216 664.766,-216 670.766,-222 670.766,-228 670.766,-228 670.766,-240 670.766,-240 670.766,-246 664.766,-252 658.766,-252"/>
<text text-anchor="middle" x="545.266" y="-237" font-family="sans" font-size="10.00">sniffles_sv_forcecall</text>
<text text-anchor="middle" x="545.266" y="-226" font-family="sans" font-size="10.00">sample: CHOZNStableNoglnDay0rep3.minimap2</text>
</g>
<!-- 9&#45;&gt;5 -->
<g id="edge9" class="edge"><title>9&#45;&gt;5</title>
<path fill="none" stroke="grey" stroke-width="2" d="M545.266,-215.697C545.266,-207.983 545.266,-198.712 545.266,-190.112"/>
<polygon fill="grey" stroke="grey" stroke-width="2" points="548.766,-190.104 545.266,-180.104 541.766,-190.104 548.766,-190.104"/>
</g>
<!-- 10 -->
<g id="node11" class="node"><title>10</title>
<path fill="none" stroke="#56a2d8" stroke-width="2" stroke-dasharray="5,2" d="M731.766,-468C731.766,-468 700.766,-468 700.766,-468 694.766,-468 688.766,-462 688.766,-456 688.766,-456 688.766,-444 688.766,-444 688.766,-438 694.766,-432 700.766,-432 700.766,-432 731.766,-432 731.766,-432 737.766,-432 743.766,-438 743.766,-444 743.766,-444 743.766,-456 743.766,-456 743.766,-462 737.766,-468 731.766,-468"/>
<text text-anchor="middle" x="716.266" y="-447.5" font-family="sans" font-size="10.00">call_cpg</text>
</g>
<!-- 10&#45;&gt;6 -->
<g id="edge10" class="edge"><title>10&#45;&gt;6</title>
<path fill="none" stroke="grey" stroke-width="2" d="M716.266,-431.697C716.266,-423.983 716.266,-414.712 716.266,-406.112"/>
<polygon fill="grey" stroke="grey" stroke-width="2" points="719.766,-406.104 716.266,-396.104 712.766,-406.104 719.766,-406.104"/>
</g>
<!-- 11 -->
<g id="node12" class="node"><title>11</title>
<path fill="none" stroke="#56a2d8" stroke-width="2" stroke-dasharray="5,2" d="M838.766,-468C838.766,-468 807.766,-468 807.766,-468 801.766,-468 795.766,-462 795.766,-456 795.766,-456 795.766,-444 795.766,-444 795.766,-438 801.766,-432 807.766,-432 807.766,-432 838.766,-432 838.766,-432 844.766,-432 850.766,-438 850.766,-444 850.766,-444 850.766,-456 850.766,-456 850.766,-462 844.766,-468 838.766,-468"/>
<text text-anchor="middle" x="823.266" y="-447.5" font-family="sans" font-size="10.00">call_cpg</text>
</g>
<!-- 11&#45;&gt;7 -->
<g id="edge11" class="edge"><title>11&#45;&gt;7</title>
<path fill="none" stroke="grey" stroke-width="2" d="M823.266,-431.697C823.266,-423.983 823.266,-414.712 823.266,-406.112"/>
<polygon fill="grey" stroke="grey" stroke-width="2" points="826.766,-406.104 823.266,-396.104 819.766,-406.104 826.766,-406.104"/>
</g>
<!-- 12 -->
<g id="node13" class="node"><title>12</title>
<path fill="none" stroke="#88d856" stroke-width="2" stroke-dasharray="5,2" d="M299.266,-545C299.266,-545 123.266,-545 123.266,-545 117.266,-545 111.266,-539 111.266,-533 111.266,-533 111.266,-516 111.266,-516 111.266,-510 117.266,-504 123.266,-504 123.266,-504 299.266,-504 299.266,-504 305.266,-504 311.266,-510 311.266,-516 311.266,-516 311.266,-533 311.266,-533 311.266,-539 305.266,-545 299.266,-545"/>
<text text-anchor="middle" x="211.266" y="-533" font-family="sans" font-size="10.00">minimap2_align</text>
<text text-anchor="middle" x="211.266" y="-522" font-family="sans" font-size="10.00">dir: data/nanopore</text>
<text text-anchor="middle" x="211.266" y="-511" font-family="sans" font-size="10.00">sample: CHOZNStableNoglnDay0rep2</text>
</g>
<!-- 12&#45;&gt;8 -->
<g id="edge12" class="edge"><title>12&#45;&gt;8</title>
<path fill="none" stroke="grey" stroke-width="2" d="M111.124,-505.311C86.7622,-497.105 62.2791,-485.215 43.2662,-468 6.15574,-434.398 -13.6554,-403.419 11.2662,-360 41.8518,-306.713 104.9,-273.981 154.68,-255.452"/>
<polygon fill="grey" stroke="grey" stroke-width="2" points="155.907,-258.73 164.127,-252.044 153.532,-252.145 155.907,-258.73"/>
</g>
<!-- 12&#45;&gt;10 -->
<g id="edge16" class="edge"><title>12&#45;&gt;10</title>
<path fill="none" stroke="grey" stroke-width="2" d="M311.36,-509.244C389.717,-498.07 501.44,-482.104 599.266,-468 625.693,-464.19 655.471,-459.863 678.372,-456.528"/>
<polygon fill="grey" stroke="grey" stroke-width="2" points="678.983,-459.976 688.374,-455.07 677.973,-453.049 678.983,-459.976"/>
</g>
<!-- 20 -->
<g id="node21" class="node"><title>20</title>
<path fill="none" stroke="#56c9d8" stroke-width="2" stroke-dasharray="5,2" d="M291.766,-468C291.766,-468 64.7662,-468 64.7662,-468 58.7662,-468 52.7662,-462 52.7662,-456 52.7662,-456 52.7662,-444 52.7662,-444 52.7662,-438 58.7662,-432 64.7662,-432 64.7662,-432 291.766,-432 291.766,-432 297.766,-432 303.766,-438 303.766,-444 303.766,-444 303.766,-456 303.766,-456 303.766,-462 297.766,-468 291.766,-468"/>
<text text-anchor="middle" x="178.266" y="-453" font-family="sans" font-size="10.00">sniffles_sv</text>
<text text-anchor="middle" x="178.266" y="-442" font-family="sans" font-size="10.00">sample: CHOZNStableNoglnDay0rep2.minimap2</text>
</g>
<!-- 12&#45;&gt;20 -->
<g id="edge26" class="edge"><title>12&#45;&gt;20</title>
<path fill="none" stroke="grey" stroke-width="2" d="M202.249,-503.689C198.588,-495.647 194.305,-486.236 190.378,-477.61"/>
<polygon fill="grey" stroke="grey" stroke-width="2" points="193.478,-475.971 186.15,-468.319 187.107,-478.871 193.478,-475.971"/>
</g>
<!-- 13 -->
<g id="node14" class="node"><title>13</title>
<path fill="none" stroke="#56d8d0" stroke-width="2" stroke-dasharray="5,2" d="M407.766,-324C407.766,-324 286.766,-324 286.766,-324 280.766,-324 274.766,-318 274.766,-312 274.766,-312 274.766,-300 274.766,-300 274.766,-294 280.766,-288 286.766,-288 286.766,-288 407.766,-288 407.766,-288 413.766,-288 419.766,-294 419.766,-300 419.766,-300 419.766,-312 419.766,-312 419.766,-318 413.766,-324 407.766,-324"/>
<text text-anchor="middle" x="347.266" y="-303.5" font-family="sans" font-size="10.00">merge_sv_before_forcecall</text>
</g>
<!-- 13&#45;&gt;8 -->
<g id="edge13" class="edge"><title>13&#45;&gt;8</title>
<path fill="none" stroke="grey" stroke-width="2" d="M317.422,-287.876C301.322,-278.639 281.266,-267.131 263.978,-257.212"/>
<polygon fill="grey" stroke="grey" stroke-width="2" points="265.641,-254.131 255.225,-252.19 262.157,-260.202 265.641,-254.131"/>
</g>
<!-- 13&#45;&gt;9 -->
<g id="edge15" class="edge"><title>13&#45;&gt;9</title>
<path fill="none" stroke="grey" stroke-width="2" d="M395.449,-287.966C423.114,-278.185 458.043,-265.836 487.214,-255.524"/>
<polygon fill="grey" stroke="grey" stroke-width="2" points="488.606,-258.744 496.867,-252.111 486.272,-252.144 488.606,-258.744"/>
</g>
<!-- 14 -->
<g id="node15" class="node"><title>14</title>
<path fill="none" stroke="#88d856" stroke-width="2" stroke-dasharray="5,2" d="M551.266,-545C551.266,-545 375.266,-545 375.266,-545 369.266,-545 363.266,-539 363.266,-533 363.266,-533 363.266,-516 363.266,-516 363.266,-510 369.266,-504 375.266,-504 375.266,-504 551.266,-504 551.266,-504 557.266,-504 563.266,-510 563.266,-516 563.266,-516 563.266,-533 563.266,-533 563.266,-539 557.266,-545 551.266,-545"/>
<text text-anchor="middle" x="463.266" y="-533" font-family="sans" font-size="10.00">minimap2_align</text>
<text text-anchor="middle" x="463.266" y="-522" font-family="sans" font-size="10.00">dir: data/nanopore</text>
<text text-anchor="middle" x="463.266" y="-511" font-family="sans" font-size="10.00">sample: CHOZNStableNoglnDay0rep3</text>
</g>
<!-- 14&#45;&gt;9 -->
<g id="edge14" class="edge"><title>14&#45;&gt;9</title>
<path fill="none" stroke="grey" stroke-width="2" d="M544.326,-503.865C564.514,-495.639 584.565,-484.102 599.266,-468 621.827,-443.289 616.323,-429.093 621.266,-396 623.63,-380.176 625.582,-375.407 621.266,-360 610.602,-321.934 584.811,-283.948 566.23,-260.017"/>
<polygon fill="grey" stroke="grey" stroke-width="2" points="568.953,-257.818 559.994,-252.161 563.47,-262.17 568.953,-257.818"/>
</g>
<!-- 14&#45;&gt;11 -->
<g id="edge18" class="edge"><title>14&#45;&gt;11</title>
<path fill="none" stroke="grey" stroke-width="2" d="M563.47,-505.411C619.19,-495.063 689.713,-481.488 752.266,-468 763.158,-465.652 774.941,-462.911 785.72,-460.325"/>
<polygon fill="grey" stroke="grey" stroke-width="2" points="786.789,-463.668 795.684,-457.911 785.141,-456.865 786.789,-463.668"/>
</g>
<!-- 21 -->
<g id="node22" class="node"><title>21</title>
<path fill="none" stroke="#56c9d8" stroke-width="2" stroke-dasharray="5,2" d="M578.766,-468C578.766,-468 351.766,-468 351.766,-468 345.766,-468 339.766,-462 339.766,-456 339.766,-456 339.766,-444 339.766,-444 339.766,-438 345.766,-432 351.766,-432 351.766,-432 578.766,-432 578.766,-432 584.766,-432 590.766,-438 590.766,-444 590.766,-444 590.766,-456 590.766,-456 590.766,-462 584.766,-468 578.766,-468"/>
<text text-anchor="middle" x="465.266" y="-453" font-family="sans" font-size="10.00">sniffles_sv</text>
<text text-anchor="middle" x="465.266" y="-442" font-family="sans" font-size="10.00">sample: CHOZNStableNoglnDay0rep3.minimap2</text>
</g>
<!-- 14&#45;&gt;21 -->
<g id="edge27" class="edge"><title>14&#45;&gt;21</title>
<path fill="none" stroke="grey" stroke-width="2" d="M463.813,-503.689C464.027,-495.907 464.277,-486.842 464.509,-478.447"/>
<polygon fill="grey" stroke="grey" stroke-width="2" points="468.011,-478.412 464.788,-468.319 461.014,-478.219 468.011,-478.412"/>
</g>
<!-- 15 -->
<g id="node16" class="node"><title>15</title>
<path fill="none" stroke="#97d856" stroke-width="2" stroke-dasharray="5,2" d="M853.266,-542.5C853.266,-542.5 593.266,-542.5 593.266,-542.5 587.266,-542.5 581.266,-536.5 581.266,-530.5 581.266,-530.5 581.266,-518.5 581.266,-518.5 581.266,-512.5 587.266,-506.5 593.266,-506.5 593.266,-506.5 853.266,-506.5 853.266,-506.5 859.266,-506.5 865.266,-512.5 865.266,-518.5 865.266,-518.5 865.266,-530.5 865.266,-530.5 865.266,-536.5 859.266,-542.5 853.266,-542.5"/>
<text text-anchor="middle" x="723.266" y="-527.5" font-family="sans" font-size="10.00">nanopolish_index</text>
<text text-anchor="middle" x="723.266" y="-516.5" font-family="sans" font-size="10.00">pre: data/nanopore/reads/CHOZNStableNoglnDay0rep2</text>
</g>
<!-- 15&#45;&gt;10 -->
<g id="edge17" class="edge"><title>15&#45;&gt;10</title>
<path fill="none" stroke="grey" stroke-width="2" d="M721.607,-506.319C720.797,-497.922 719.802,-487.616 718.891,-478.186"/>
<polygon fill="grey" stroke="grey" stroke-width="2" points="722.358,-477.675 717.913,-468.058 715.391,-478.348 722.358,-477.675"/>
</g>
<!-- 16 -->
<g id="node17" class="node"><title>16</title>
<path fill="none" stroke="#97d856" stroke-width="2" stroke-dasharray="5,2" d="M1155.27,-542.5C1155.27,-542.5 895.266,-542.5 895.266,-542.5 889.266,-542.5 883.266,-536.5 883.266,-530.5 883.266,-530.5 883.266,-518.5 883.266,-518.5 883.266,-512.5 889.266,-506.5 895.266,-506.5 895.266,-506.5 1155.27,-506.5 1155.27,-506.5 1161.27,-506.5 1167.27,-512.5 1167.27,-518.5 1167.27,-518.5 1167.27,-530.5 1167.27,-530.5 1167.27,-536.5 1161.27,-542.5 1155.27,-542.5"/>
<text text-anchor="middle" x="1025.27" y="-527.5" font-family="sans" font-size="10.00">nanopolish_index</text>
<text text-anchor="middle" x="1025.27" y="-516.5" font-family="sans" font-size="10.00">pre: data/nanopore/reads/CHOZNStableNoglnDay0rep3</text>
</g>
<!-- 16&#45;&gt;11 -->
<g id="edge19" class="edge"><title>16&#45;&gt;11</title>
<path fill="none" stroke="grey" stroke-width="2" d="M977.651,-506.41C941.922,-493.587 893.686,-476.275 860.697,-464.434"/>
<polygon fill="grey" stroke="grey" stroke-width="2" points="861.573,-461.03 850.979,-460.946 859.208,-467.619 861.573,-461.03"/>
</g>
<!-- 17 -->
<g id="node18" class="node"><title>17</title>
<path fill="none" stroke="#d8cb56" stroke-width="2" stroke-dasharray="5,2" d="M387.266,-617C387.266,-617 289.266,-617 289.266,-617 283.266,-617 277.266,-611 277.266,-605 277.266,-605 277.266,-593 277.266,-593 277.266,-587 283.266,-581 289.266,-581 289.266,-581 387.266,-581 387.266,-581 393.266,-581 399.266,-587 399.266,-593 399.266,-593 399.266,-605 399.266,-605 399.266,-611 393.266,-617 387.266,-617"/>
<text text-anchor="middle" x="338.266" y="-596.5" font-family="sans" font-size="10.00">minimap2_makeindex</text>
</g>
<!-- 17&#45;&gt;12 -->
<g id="edge20" class="edge"><title>17&#45;&gt;12</title>
<path fill="none" stroke="grey" stroke-width="2" d="M308.169,-580.819C292.179,-571.69 272.237,-560.306 254.609,-550.243"/>
<polygon fill="grey" stroke="grey" stroke-width="2" points="256.054,-547.038 245.634,-545.12 252.584,-553.117 256.054,-547.038"/>
</g>
<!-- 17&#45;&gt;14 -->
<g id="edge23" class="edge"><title>17&#45;&gt;14</title>
<path fill="none" stroke="grey" stroke-width="2" d="M367.889,-580.819C383.628,-571.69 403.255,-560.306 420.606,-550.243"/>
<polygon fill="grey" stroke="grey" stroke-width="2" points="422.545,-553.164 429.439,-545.12 419.033,-547.109 422.545,-553.164"/>
</g>
<!-- 18 -->
<g id="node19" class="node"><title>18</title>
<path fill="none" stroke="#56b9d8" stroke-width="2" stroke-dasharray="5,2" d="M295.766,-396C295.766,-396 32.7662,-396 32.7662,-396 26.7662,-396 20.7662,-390 20.7662,-384 20.7662,-384 20.7662,-372 20.7662,-372 20.7662,-366 26.7662,-360 32.7662,-360 32.7662,-360 295.766,-360 295.766,-360 301.766,-360 307.766,-366 307.766,-372 307.766,-372 307.766,-384 307.766,-384 307.766,-390 301.766,-396 295.766,-396"/>
<text text-anchor="middle" x="164.266" y="-381" font-family="sans" font-size="10.00">sort_vcf</text>
<text text-anchor="middle" x="164.266" y="-370" font-family="sans" font-size="10.00">sample: CHOZNStableNoglnDay0rep2.minimap2.sniffles</text>
</g>
<!-- 18&#45;&gt;13 -->
<g id="edge21" class="edge"><title>18&#45;&gt;13</title>
<path fill="none" stroke="grey" stroke-width="2" d="M209.033,-359.876C234.384,-350.179 266.277,-337.98 293.039,-327.743"/>
<polygon fill="grey" stroke="grey" stroke-width="2" points="294.555,-330.91 302.645,-324.068 292.054,-324.372 294.555,-330.91"/>
</g>
<!-- 19 -->
<g id="node20" class="node"><title>19</title>
<path fill="none" stroke="#56b9d8" stroke-width="2" stroke-dasharray="5,2" d="M600.766,-396C600.766,-396 337.766,-396 337.766,-396 331.766,-396 325.766,-390 325.766,-384 325.766,-384 325.766,-372 325.766,-372 325.766,-366 331.766,-360 337.766,-360 337.766,-360 600.766,-360 600.766,-360 606.766,-360 612.766,-366 612.766,-372 612.766,-372 612.766,-384 612.766,-384 612.766,-390 606.766,-396 600.766,-396"/>
<text text-anchor="middle" x="469.266" y="-381" font-family="sans" font-size="10.00">sort_vcf</text>
<text text-anchor="middle" x="469.266" y="-370" font-family="sans" font-size="10.00">sample: CHOZNStableNoglnDay0rep3.minimap2.sniffles</text>
</g>
<!-- 19&#45;&gt;13 -->
<g id="edge22" class="edge"><title>19&#45;&gt;13</title>
<path fill="none" stroke="grey" stroke-width="2" d="M439.422,-359.876C423.322,-350.639 403.266,-339.131 385.978,-329.212"/>
<polygon fill="grey" stroke="grey" stroke-width="2" points="387.641,-326.131 377.225,-324.19 384.157,-332.202 387.641,-326.131"/>
</g>
<!-- 20&#45;&gt;18 -->
<g id="edge24" class="edge"><title>20&#45;&gt;18</title>
<path fill="none" stroke="grey" stroke-width="2" d="M174.806,-431.697C173.263,-423.983 171.409,-414.712 169.689,-406.112"/>
<polygon fill="grey" stroke="grey" stroke-width="2" points="173.08,-405.224 167.687,-396.104 166.216,-406.597 173.08,-405.224"/>
</g>
<!-- 21&#45;&gt;19 -->
<g id="edge25" class="edge"><title>21&#45;&gt;19</title>
<path fill="none" stroke="grey" stroke-width="2" d="M466.255,-431.697C466.696,-423.983 467.225,-414.712 467.717,-406.112"/>
<polygon fill="grey" stroke="grey" stroke-width="2" points="471.213,-406.288 468.289,-396.104 464.224,-405.888 471.213,-406.288"/>
</g>
</g>
</svg>
