<?xml version="1.0" encoding="UTF-8" standalone="no"?>
<!DOCTYPE svg PUBLIC "-//W3C//DTD SVG 1.1//EN"
 "http://www.w3.org/Graphics/SVG/1.1/DTD/svg11.dtd">
<!-- Generated by graphviz version 2.38.0 (20140413.2041)
 -->
<!-- Title: snakemake_dag Pages: 1 -->
<svg width="1030pt" height="409pt"
 viewBox="0.00 0.00 1030.00 409.00" xmlns="http://www.w3.org/2000/svg" xmlns:xlink="http://www.w3.org/1999/xlink">
<g id="graph0" class="graph" transform="scale(1 1) rotate(0) translate(4 405)">
<title>snakemake_dag</title>
<polygon fill="white" stroke="none" points="-4,4 -4,-405 1026,-405 1026,4 -4,4"/>
<!-- 0 -->
<g id="node1" class="node"><title>0</title>
<path fill="none" stroke="#afd856" stroke-width="2" stroke-dasharray="5,2" d="M563.5,-36C563.5,-36 462.5,-36 462.5,-36 456.5,-36 450.5,-30 450.5,-24 450.5,-24 450.5,-12 450.5,-12 450.5,-6 456.5,-0 462.5,-0 462.5,-0 563.5,-0 563.5,-0 569.5,-0 575.5,-6 575.5,-12 575.5,-12 575.5,-24 575.5,-24 575.5,-30 569.5,-36 563.5,-36"/>
<text text-anchor="middle" x="513" y="-15.5" font-family="sans" font-size="10.00">nanopore_methylation</text>
</g>
<!-- 1 -->
<g id="node2" class="node"><title>1</title>
<path fill="none" stroke="#56c9d8" stroke-width="2" stroke-dasharray="5,2" d="M487.5,-108C487.5,-108 418.5,-108 418.5,-108 412.5,-108 406.5,-102 406.5,-96 406.5,-96 406.5,-84 406.5,-84 406.5,-78 412.5,-72 418.5,-72 418.5,-72 487.5,-72 487.5,-72 493.5,-72 499.5,-78 499.5,-84 499.5,-84 499.5,-96 499.5,-96 499.5,-102 493.5,-108 487.5,-108"/>
<text text-anchor="middle" x="453" y="-93" font-family="sans" font-size="10.00">mbed_to_mfreq</text>
<text text-anchor="middle" x="453" y="-82" font-family="sans" font-size="10.00">mod: cpg</text>
</g>
<!-- 1&#45;&gt;0 -->
<g id="edge1" class="edge"><title>1&#45;&gt;0</title>
<path fill="none" stroke="grey" stroke-width="2" d="M467.831,-71.6966C475.025,-63.3046 483.797,-53.0705 491.69,-43.8613"/>
<polygon fill="grey" stroke="grey" stroke-width="2" points="494.489,-45.9747 498.339,-36.1043 489.174,-41.4191 494.489,-45.9747"/>
</g>
<!-- 2 -->
<g id="node3" class="node"><title>2</title>
<path fill="none" stroke="#56c9d8" stroke-width="2" stroke-dasharray="5,2" d="M607.5,-108C607.5,-108 538.5,-108 538.5,-108 532.5,-108 526.5,-102 526.5,-96 526.5,-96 526.5,-84 526.5,-84 526.5,-78 532.5,-72 538.5,-72 538.5,-72 607.5,-72 607.5,-72 613.5,-72 619.5,-78 619.5,-84 619.5,-84 619.5,-96 619.5,-96 619.5,-102 613.5,-108 607.5,-108"/>
<text text-anchor="middle" x="573" y="-93" font-family="sans" font-size="10.00">mbed_to_mfreq</text>
<text text-anchor="middle" x="573" y="-82" font-family="sans" font-size="10.00">mod: cpg</text>
</g>
<!-- 2&#45;&gt;0 -->
<g id="edge2" class="edge"><title>2&#45;&gt;0</title>
<path fill="none" stroke="grey" stroke-width="2" d="M558.169,-71.6966C550.975,-63.3046 542.203,-53.0705 534.31,-43.8613"/>
<polygon fill="grey" stroke="grey" stroke-width="2" points="536.826,-41.4191 527.661,-36.1043 531.511,-45.9747 536.826,-41.4191"/>
</g>
<!-- 3 -->
<g id="node4" class="node"><title>3</title>
<path fill="none" stroke="#56d873" stroke-width="2" stroke-dasharray="5,2" d="M466.5,-180C466.5,-180 401.5,-180 401.5,-180 395.5,-180 389.5,-174 389.5,-168 389.5,-168 389.5,-156 389.5,-156 389.5,-150 395.5,-144 401.5,-144 401.5,-144 466.5,-144 466.5,-144 472.5,-144 478.5,-150 478.5,-156 478.5,-156 478.5,-168 478.5,-168 478.5,-174 472.5,-180 466.5,-180"/>
<text text-anchor="middle" x="434" y="-159.5" font-family="sans" font-size="10.00">mtsv_to_mbed</text>
</g>
<!-- 3&#45;&gt;1 -->
<g id="edge3" class="edge"><title>3&#45;&gt;1</title>
<path fill="none" stroke="grey" stroke-width="2" d="M438.697,-143.697C440.813,-135.898 443.362,-126.509 445.718,-117.829"/>
<polygon fill="grey" stroke="grey" stroke-width="2" points="449.116,-118.672 448.357,-108.104 442.36,-116.838 449.116,-118.672"/>
</g>
<!-- 4 -->
<g id="node5" class="node"><title>4</title>
<path fill="none" stroke="#56d873" stroke-width="2" stroke-dasharray="5,2" d="M642.5,-180C642.5,-180 577.5,-180 577.5,-180 571.5,-180 565.5,-174 565.5,-168 565.5,-168 565.5,-156 565.5,-156 565.5,-150 571.5,-144 577.5,-144 577.5,-144 642.5,-144 642.5,-144 648.5,-144 654.5,-150 654.5,-156 654.5,-156 654.5,-168 654.5,-168 654.5,-174 648.5,-180 642.5,-180"/>
<text text-anchor="middle" x="610" y="-159.5" font-family="sans" font-size="10.00">mtsv_to_mbed</text>
</g>
<!-- 4&#45;&gt;2 -->
<g id="edge4" class="edge"><title>4&#45;&gt;2</title>
<path fill="none" stroke="grey" stroke-width="2" d="M600.854,-143.697C596.597,-135.644 591.444,-125.894 586.734,-116.982"/>
<polygon fill="grey" stroke="grey" stroke-width="2" points="589.808,-115.31 582.041,-108.104 583.62,-118.581 589.808,-115.31"/>
</g>
<!-- 5 -->
<g id="node6" class="node"><title>5</title>
<path fill="none" stroke="#d88d56" stroke-width="2" stroke-dasharray="5,2" d="M375.5,-252C375.5,-252 344.5,-252 344.5,-252 338.5,-252 332.5,-246 332.5,-240 332.5,-240 332.5,-228 332.5,-228 332.5,-222 338.5,-216 344.5,-216 344.5,-216 375.5,-216 375.5,-216 381.5,-216 387.5,-222 387.5,-228 387.5,-228 387.5,-240 387.5,-240 387.5,-246 381.5,-252 375.5,-252"/>
<text text-anchor="middle" x="360" y="-231.5" font-family="sans" font-size="10.00">call_cpg</text>
</g>
<!-- 5&#45;&gt;3 -->
<g id="edge5" class="edge"><title>5&#45;&gt;3</title>
<path fill="none" stroke="grey" stroke-width="2" d="M378.292,-215.697C387.433,-207.05 398.64,-196.449 408.6,-187.027"/>
<polygon fill="grey" stroke="grey" stroke-width="2" points="411.059,-189.519 415.918,-180.104 406.248,-184.434 411.059,-189.519"/>
</g>
<!-- 6 -->
<g id="node7" class="node"><title>6</title>
<path fill="none" stroke="#d88d56" stroke-width="2" stroke-dasharray="5,2" d="M635.5,-252C635.5,-252 604.5,-252 604.5,-252 598.5,-252 592.5,-246 592.5,-240 592.5,-240 592.5,-228 592.5,-228 592.5,-222 598.5,-216 604.5,-216 604.5,-216 635.5,-216 635.5,-216 641.5,-216 647.5,-222 647.5,-228 647.5,-228 647.5,-240 647.5,-240 647.5,-246 641.5,-252 635.5,-252"/>
<text text-anchor="middle" x="620" y="-231.5" font-family="sans" font-size="10.00">call_cpg</text>
</g>
<!-- 6&#45;&gt;4 -->
<g id="edge6" class="edge"><title>6&#45;&gt;4</title>
<path fill="none" stroke="grey" stroke-width="2" d="M617.528,-215.697C616.426,-207.983 615.102,-198.712 613.873,-190.112"/>
<polygon fill="grey" stroke="grey" stroke-width="2" points="617.323,-189.509 612.443,-180.104 610.393,-190.499 617.323,-189.509"/>
</g>
<!-- 7 -->
<g id="node8" class="node"><title>7</title>
<path fill="none" stroke="#97d856" stroke-width="2" stroke-dasharray="5,2" d="M188,-329C188,-329 12,-329 12,-329 6,-329 0,-323 0,-317 0,-317 0,-300 0,-300 0,-294 6,-288 12,-288 12,-288 188,-288 188,-288 194,-288 200,-294 200,-300 200,-300 200,-317 200,-317 200,-323 194,-329 188,-329"/>
<text text-anchor="middle" x="100" y="-317" font-family="sans" font-size="10.00">minimap2_align</text>
<text text-anchor="middle" x="100" y="-306" font-family="sans" font-size="10.00">dir: data/nanopore</text>
<text text-anchor="middle" x="100" y="-295" font-family="sans" font-size="10.00">sample: CHOZNStableNoglnDay0rep2</text>
</g>
<!-- 7&#45;&gt;5 -->
<g id="edge7" class="edge"><title>7&#45;&gt;5</title>
<path fill="none" stroke="grey" stroke-width="2" d="M170.017,-287.976C219.136,-274.279 282.887,-256.503 322.621,-245.423"/>
<polygon fill="grey" stroke="grey" stroke-width="2" points="323.734,-248.746 332.426,-242.689 321.853,-242.004 323.734,-248.746"/>
</g>
<!-- 8 -->
<g id="node9" class="node"><title>8</title>
<path fill="none" stroke="#56d88a" stroke-width="2" stroke-dasharray="5,2" d="M490,-326.5C490,-326.5 230,-326.5 230,-326.5 224,-326.5 218,-320.5 218,-314.5 218,-314.5 218,-302.5 218,-302.5 218,-296.5 224,-290.5 230,-290.5 230,-290.5 490,-290.5 490,-290.5 496,-290.5 502,-296.5 502,-302.5 502,-302.5 502,-314.5 502,-314.5 502,-320.5 496,-326.5 490,-326.5"/>
<text text-anchor="middle" x="360" y="-311.5" font-family="sans" font-size="10.00">nanopolish_index</text>
<text text-anchor="middle" x="360" y="-300.5" font-family="sans" font-size="10.00">pre: data/nanopore/reads/CHOZNStableNoglnDay0rep2</text>
</g>
<!-- 8&#45;&gt;5 -->
<g id="edge8" class="edge"><title>8&#45;&gt;5</title>
<path fill="none" stroke="grey" stroke-width="2" d="M360,-290.319C360,-281.922 360,-271.616 360,-262.186"/>
<polygon fill="grey" stroke="grey" stroke-width="2" points="363.5,-262.058 360,-252.058 356.5,-262.058 363.5,-262.058"/>
</g>
<!-- 9 -->
<g id="node10" class="node"><title>9</title>
<path fill="none" stroke="#97d856" stroke-width="2" stroke-dasharray="5,2" d="M708,-329C708,-329 532,-329 532,-329 526,-329 520,-323 520,-317 520,-317 520,-300 520,-300 520,-294 526,-288 532,-288 532,-288 708,-288 708,-288 714,-288 720,-294 720,-300 720,-300 720,-317 720,-317 720,-323 714,-329 708,-329"/>
<text text-anchor="middle" x="620" y="-317" font-family="sans" font-size="10.00">minimap2_align</text>
<text text-anchor="middle" x="620" y="-306" font-family="sans" font-size="10.00">dir: data/nanopore</text>
<text text-anchor="middle" x="620" y="-295" font-family="sans" font-size="10.00">sample: CHOZNStableNoglnDay0rep3</text>
</g>
<!-- 9&#45;&gt;6 -->
<g id="edge9" class="edge"><title>9&#45;&gt;6</title>
<path fill="none" stroke="grey" stroke-width="2" d="M620,-287.689C620,-279.907 620,-270.842 620,-262.447"/>
<polygon fill="grey" stroke="grey" stroke-width="2" points="623.5,-262.319 620,-252.319 616.5,-262.32 623.5,-262.319"/>
</g>
<!-- 10 -->
<g id="node11" class="node"><title>10</title>
<path fill="none" stroke="#56d88a" stroke-width="2" stroke-dasharray="5,2" d="M1010,-326.5C1010,-326.5 750,-326.5 750,-326.5 744,-326.5 738,-320.5 738,-314.5 738,-314.5 738,-302.5 738,-302.5 738,-296.5 744,-290.5 750,-290.5 750,-290.5 1010,-290.5 1010,-290.5 1016,-290.5 1022,-296.5 1022,-302.5 1022,-302.5 1022,-314.5 1022,-314.5 1022,-320.5 1016,-326.5 1010,-326.5"/>
<text text-anchor="middle" x="880" y="-311.5" font-family="sans" font-size="10.00">nanopolish_index</text>
<text text-anchor="middle" x="880" y="-300.5" font-family="sans" font-size="10.00">pre: data/nanopore/reads/CHOZNStableNoglnDay0rep3</text>
</g>
<!-- 10&#45;&gt;6 -->
<g id="edge10" class="edge"><title>10&#45;&gt;6</title>
<path fill="none" stroke="grey" stroke-width="2" d="M818.713,-290.41C768.644,-276.449 699.491,-257.166 657.359,-245.417"/>
<polygon fill="grey" stroke="grey" stroke-width="2" points="658.087,-241.987 647.515,-242.672 656.207,-248.73 658.087,-241.987"/>
</g>
<!-- 11 -->
<g id="node12" class="node"><title>11</title>
<path fill="none" stroke="#56d8d0" stroke-width="2" stroke-dasharray="5,2" d="M409,-401C409,-401 311,-401 311,-401 305,-401 299,-395 299,-389 299,-389 299,-377 299,-377 299,-371 305,-365 311,-365 311,-365 409,-365 409,-365 415,-365 421,-371 421,-377 421,-377 421,-389 421,-389 421,-395 415,-401 409,-401"/>
<text text-anchor="middle" x="360" y="-380.5" font-family="sans" font-size="10.00">minimap2_makeindex</text>
</g>
<!-- 11&#45;&gt;7 -->
<g id="edge11" class="edge"><title>11&#45;&gt;7</title>
<path fill="none" stroke="grey" stroke-width="2" d="M298.713,-364.91C263.294,-355.034 218.326,-342.495 180.128,-331.843"/>
<polygon fill="grey" stroke="grey" stroke-width="2" points="180.635,-328.351 170.062,-329.037 178.754,-335.094 180.635,-328.351"/>
</g>
<!-- 11&#45;&gt;9 -->
<g id="edge12" class="edge"><title>11&#45;&gt;9</title>
<path fill="none" stroke="grey" stroke-width="2" d="M421.287,-364.91C456.706,-355.034 501.674,-342.495 539.872,-331.843"/>
<polygon fill="grey" stroke="grey" stroke-width="2" points="541.246,-335.094 549.938,-329.037 539.365,-328.351 541.246,-335.094"/>
</g>
</g>
</svg>
